<svg width="200" height="100" viewBox="0 0 581 225" fill="none" xmlns="http://www.w3.org/2000/svg">
<g clip-path="url(#clip0_1_2)">
<g filter="url(#filter0_d_1_2)">
<path d="M77.8806 44.8017C86.9867 39.7027 98.0885 39.7027 107.195 44.8017L157.335 72.8774C166.809 78.1828 172.678 88.1942 172.678 99.0532V153.632C172.678 164.491 166.809 174.503 157.335 179.808L107.195 207.884C98.0885 212.983 86.9867 212.983 77.8806 207.884L27.7407 179.808C18.2659 174.503 12.3977 164.491 12.3977 153.632V99.0532C12.3977 88.1942 18.2658 78.1828 27.7406 72.8774L77.8806 44.8017Z" fill="url(#paint0_linear_1_2)" fill-opacity="0.55" shape-rendering="crispEdges"/>
</g>
<g filter="url(#filter1_d_1_2)">
<path d="M106.332 138.167V89.8145C106.332 78.4746 94.2344 71.2392 84.3294 76.7603C69.5271 85.0111 57.3999 92.1572 41.7499 101.451C37.2 104.152 34.4118 109.054 34.4118 114.345V162.103C34.4118 173.618 46.8496 180.838 56.8494 175.129L98.77 151.193C103.446 148.523 106.332 143.552 106.332 138.167Z" fill="#FF3030" fill-opacity="0.3" shape-rendering="crispEdges"/>
</g>
<g filter="url(#filter2_d_1_2)">
<path d="M128.498 151.157V102.805C128.498 91.4647 116.4 84.2293 106.495 89.7504C91.6926 98.0012 79.5654 105.147 63.9155 114.441C59.3655 117.143 56.5773 122.044 56.5773 127.336V175.093C56.5773 186.608 69.0151 193.828 79.015 188.119L120.936 164.183C125.612 161.513 128.498 156.542 128.498 151.157Z" fill="#FF3030" fill-opacity="0.3" shape-rendering="crispEdges"/>
</g>
<g filter="url(#filter3_b_1_2)">
<path d="M77.8805 44.8017C86.9867 39.7027 98.0885 39.7027 107.195 44.8017L157.335 72.8774C166.809 78.1828 172.678 88.1942 172.678 99.0532V153.632C172.678 164.491 166.809 174.503 157.335 179.808L107.195 207.884C98.0885 212.983 86.9867 212.983 77.8805 207.884L27.7406 179.808C18.2658 174.503 12.3976 164.491 12.3976 153.632V99.0532C12.3976 88.1942 18.2658 78.1828 27.7406 72.8774L77.8805 44.8017Z" fill="url(#paint1_linear_1_2)"/>
</g>
<g filter="url(#filter4_d_1_2)">
<path d="M102.505 124.856V76.5039C102.505 65.1641 90.4073 57.9287 80.5023 63.4498C65.7 71.7005 53.5728 78.8467 37.9228 88.14C33.3729 90.8419 30.5847 95.7432 30.5847 101.035V148.792C30.5847 160.307 43.0225 167.528 53.0224 161.818L94.943 137.883C99.6191 135.213 102.505 130.241 102.505 124.856Z" fill="#FF3030" fill-opacity="0.3" shape-rendering="crispEdges"/>
</g>
<g filter="url(#filter5_d_1_2)">
<path d="M150.553 151.157V102.805C150.553 91.4647 138.455 84.2293 128.55 89.7504C113.747 98.0012 101.62 105.147 85.9703 114.441C81.4203 117.143 78.6321 122.044 78.6321 127.336V175.093C78.6321 186.608 91.07 193.828 101.07 188.119L142.99 164.183C147.667 161.513 150.553 156.542 150.553 151.157Z" fill="#FF3030" fill-opacity="0.3" shape-rendering="crispEdges"/>
</g>
<g filter="url(#filter6_d_1_2)">
<path d="M128.498 138.167V89.8145C128.498 78.4746 116.4 71.2392 106.495 76.7603C91.6926 85.0111 79.5654 92.1572 63.9154 101.451C59.3655 104.152 56.5773 109.054 56.5773 114.345V149.904V162.103C56.5773 173.618 69.0151 180.838 79.0149 175.129L120.936 151.193C125.612 148.523 128.498 143.552 128.498 138.167Z" fill="url(#paint2_linear_1_2)" fill-opacity="0.3" shape-rendering="crispEdges"/>
</g>
<path d="M177.853 165.93C177.469 165.93 177.278 165.739 177.278 165.355L177.508 86.3502C177.508 86.0435 177.661 85.8902 177.968 85.8902H200.048C207.101 85.8902 212.659 88.0368 216.723 92.3302C220.863 96.6235 222.933 102.45 222.933 109.81C222.933 115.254 221.859 119.969 219.713 123.955C217.566 127.942 214.768 131.009 211.318 133.155C207.868 135.302 204.111 136.375 200.048 136.375H191.308V165.355C191.308 165.739 191.116 165.93 190.733 165.93H177.853ZM191.308 122.46H200.048C202.501 122.46 204.609 121.31 206.373 119.01C208.213 116.634 209.133 113.567 209.133 109.81C209.133 106.82 208.328 104.367 206.718 102.45C205.108 100.534 202.884 99.5752 200.048 99.5752L191.308 99.6902V122.46ZM231.195 165.93C230.888 165.93 230.735 165.739 230.735 165.355L230.85 86.3502C230.85 86.0435 231.041 85.8902 231.425 85.8902H244.19C244.573 85.8902 244.765 86.0435 244.765 86.3502L244.65 117.63H261.9V86.3502C261.9 86.0435 262.053 85.8902 262.36 85.8902H275.125C275.508 85.8902 275.7 86.0435 275.7 86.3502L275.93 165.355C275.93 165.739 275.738 165.93 275.355 165.93H262.475C262.091 165.93 261.9 165.739 261.9 165.355V131.545H244.65V165.355C244.65 165.739 244.496 165.93 244.19 165.93H231.195ZM306.59 167.08C302.45 167.08 298.655 166.045 295.205 163.975C291.831 161.829 289.11 159.03 287.04 155.58C284.97 152.054 283.935 148.182 283.935 143.965L284.05 107.51C284.05 103.294 285.046 99.4602 287.04 96.0102C289.11 92.5602 291.87 89.8002 295.32 87.7302C298.77 85.6602 302.526 84.6252 306.59 84.6252C310.73 84.6252 314.486 85.6602 317.86 87.7302C321.233 89.8002 323.916 92.5602 325.91 96.0102C327.98 99.4602 329.015 103.294 329.015 107.51L329.13 143.965C329.13 148.182 328.095 152.054 326.025 155.58C324.031 159.03 321.31 161.829 317.86 163.975C314.486 166.045 310.73 167.08 306.59 167.08ZM306.59 153.165C308.89 153.165 310.883 152.245 312.57 150.405C314.333 148.489 315.215 146.342 315.215 143.965L315.1 107.51C315.1 104.98 314.295 102.834 312.685 101.07C311.075 99.3068 309.043 98.4252 306.59 98.4252C304.213 98.4252 302.181 99.3068 300.495 101.07C298.808 102.757 297.965 104.904 297.965 107.51V143.965C297.965 146.495 298.808 148.68 300.495 150.52C302.181 152.284 304.213 153.165 306.59 153.165ZM347.913 165.93C347.607 165.93 347.453 165.739 347.453 165.355V99.8052H332.503C332.12 99.8052 331.928 99.6135 331.928 99.2302L332.043 86.3502C332.043 86.0435 332.197 85.8902 332.503 85.8902H376.203C376.587 85.8902 376.778 86.0435 376.778 86.3502V99.2302C376.778 99.6135 376.625 99.8052 376.318 99.8052H361.253L361.368 165.355C361.368 165.739 361.215 165.93 360.908 165.93H347.913ZM402.61 167.08C398.47 167.08 394.675 166.045 391.225 163.975C387.852 161.829 385.13 159.03 383.06 155.58C380.99 152.054 379.955 148.182 379.955 143.965L380.07 107.51C380.07 103.294 381.067 99.4602 383.06 96.0102C385.13 92.5602 387.89 89.8002 391.34 87.7302C394.79 85.6602 398.547 84.6252 402.61 84.6252C406.75 84.6252 410.507 85.6602 413.88 87.7302C417.253 89.8002 419.937 92.5602 421.93 96.0102C424 99.4602 425.035 103.294 425.035 107.51L425.15 143.965C425.15 148.182 424.115 152.054 422.045 155.58C420.052 159.03 417.33 161.829 413.88 163.975C410.507 166.045 406.75 167.08 402.61 167.08ZM402.61 153.165C404.91 153.165 406.903 152.245 408.59 150.405C410.353 148.489 411.235 146.342 411.235 143.965L411.12 107.51C411.12 104.98 410.315 102.834 408.705 101.07C407.095 99.3068 405.063 98.4252 402.61 98.4252C400.233 98.4252 398.202 99.3068 396.515 101.07C394.828 102.757 393.985 104.904 393.985 107.51V143.965C393.985 146.495 394.828 148.68 396.515 150.52C398.202 152.284 400.233 153.165 402.61 153.165ZM434.354 165.93C434.047 165.93 433.894 165.739 433.894 165.355L434.124 86.3502C434.124 86.0435 434.277 85.8902 434.584 85.8902H456.664C461.034 85.8902 464.944 86.9635 468.394 89.1102C471.844 91.1802 474.565 93.9402 476.559 97.3902C478.552 100.84 479.549 104.597 479.549 108.66C479.549 111.957 478.782 115.024 477.249 117.86C475.792 120.697 474.029 122.997 471.959 124.76C474.182 126.984 475.907 129.552 477.134 132.465C478.36 135.379 478.974 138.445 478.974 141.665C478.974 146.112 477.9 150.175 475.754 153.855C473.607 157.535 470.694 160.487 467.014 162.71C463.41 164.857 459.385 165.93 454.939 165.93H434.354ZM447.924 117.63H456.664C459.347 117.63 461.494 116.71 463.104 114.87C464.79 112.954 465.634 110.884 465.634 108.66C465.634 106.207 464.752 104.099 462.989 102.335C461.225 100.495 459.117 99.5752 456.664 99.5752H447.924V117.63ZM447.809 151.9H454.939C457.699 151.9 460.075 150.904 462.069 148.91C464.062 146.84 465.059 144.425 465.059 141.665C465.059 138.905 464.062 136.529 462.069 134.535C460.075 132.542 457.699 131.545 454.939 131.545H447.924L447.809 151.9ZM508.513 167.08C504.373 167.08 500.578 166.045 497.128 163.975C493.755 161.829 491.033 159.03 488.963 155.58C486.893 152.054 485.858 148.182 485.858 143.965L485.973 107.51C485.973 103.294 486.97 99.4602 488.963 96.0102C491.033 92.5602 493.793 89.8002 497.243 87.7302C500.693 85.6602 504.45 84.6252 508.513 84.6252C512.653 84.6252 516.41 85.6602 519.783 87.7302C523.157 89.8002 525.84 92.5602 527.833 96.0102C529.903 99.4602 530.938 103.294 530.938 107.51L531.053 143.965C531.053 148.182 530.018 152.054 527.948 155.58C525.955 159.03 523.233 161.829 519.783 163.975C516.41 166.045 512.653 167.08 508.513 167.08ZM508.513 153.165C510.813 153.165 512.807 152.245 514.493 150.405C516.257 148.489 517.138 146.342 517.138 143.965L517.023 107.51C517.023 104.98 516.218 102.834 514.608 101.07C512.998 99.3068 510.967 98.4252 508.513 98.4252C506.137 98.4252 504.105 99.3068 502.418 101.07C500.732 102.757 499.888 104.904 499.888 107.51V143.965C499.888 146.495 500.732 148.68 502.418 150.52C504.105 152.284 506.137 153.165 508.513 153.165ZM534.547 165.93C534.241 165.93 534.126 165.739 534.202 165.355L547.312 124.3L534.432 86.3502C534.356 86.0435 534.471 85.8902 534.777 85.8902H547.657C548.041 85.8902 548.271 86.0435 548.347 86.3502L556.052 113.72L563.872 86.3502C563.949 86.0435 564.179 85.8902 564.562 85.8902H577.327C577.634 85.8902 577.749 86.0435 577.672 86.3502L564.792 124.185L577.787 165.355C577.941 165.739 577.826 165.93 577.442 165.93H564.562C564.256 165.93 564.026 165.739 563.872 165.355L556.052 135.685L548.117 165.355C548.041 165.739 547.811 165.93 547.427 165.93H534.547Z" fill="black"/>
</g>
<defs>
<filter id="filter0_d_1_2" x="8.39771" y="40.9775" width="168.28" height="178.731" filterUnits="userSpaceOnUse" color-interpolation-filters="sRGB">
<feFlood flood-opacity="0" result="BackgroundImageFix"/>
<feColorMatrix in="SourceAlpha" type="matrix" values="0 0 0 0 0 0 0 0 0 0 0 0 0 0 0 0 0 0 127 0" result="hardAlpha"/>
<feOffset dy="4"/>
<feGaussianBlur stdDeviation="2"/>
<feComposite in2="hardAlpha" operator="out"/>
<feColorMatrix type="matrix" values="0 0 0 0 0 0 0 0 0 0 0 0 0 0 0 0 0 0 0.25 0"/>
<feBlend mode="normal" in2="BackgroundImageFix" result="effect1_dropShadow_1_2"/>
<feBlend mode="normal" in="SourceGraphic" in2="effect1_dropShadow_1_2" result="shape"/>
</filter>
<filter id="filter1_d_1_2" x="30.4118" y="74.8691" width="79.9206" height="110.256" filterUnits="userSpaceOnUse" color-interpolation-filters="sRGB">
<feFlood flood-opacity="0" result="BackgroundImageFix"/>
<feColorMatrix in="SourceAlpha" type="matrix" values="0 0 0 0 0 0 0 0 0 0 0 0 0 0 0 0 0 0 127 0" result="hardAlpha"/>
<feOffset dy="4"/>
<feGaussianBlur stdDeviation="2"/>
<feComposite in2="hardAlpha" operator="out"/>
<feColorMatrix type="matrix" values="0 0 0 0 0 0 0 0 0 0 0 0 0 0 0 0 0 0 0.25 0"/>
<feBlend mode="normal" in2="BackgroundImageFix" result="effect1_dropShadow_1_2"/>
<feBlend mode="normal" in="SourceGraphic" in2="effect1_dropShadow_1_2" result="shape"/>
</filter>
<filter id="filter2_d_1_2" x="52.5773" y="87.8592" width="79.9206" height="110.256" filterUnits="userSpaceOnUse" color-interpolation-filters="sRGB">
<feFlood flood-opacity="0" result="BackgroundImageFix"/>
<feColorMatrix in="SourceAlpha" type="matrix" values="0 0 0 0 0 0 0 0 0 0 0 0 0 0 0 0 0 0 127 0" result="hardAlpha"/>
<feOffset dy="4"/>
<feGaussianBlur stdDeviation="2"/>
<feComposite in2="hardAlpha" operator="out"/>
<feColorMatrix type="matrix" values="0 0 0 0 0 0 0 0 0 0 0 0 0 0 0 0 0 0 0.25 0"/>
<feBlend mode="normal" in2="BackgroundImageFix" result="effect1_dropShadow_1_2"/>
<feBlend mode="normal" in="SourceGraphic" in2="effect1_dropShadow_1_2" result="shape"/>
</filter>
<filter id="filter3_b_1_2" x="8.39764" y="36.9775" width="168.28" height="178.731" filterUnits="userSpaceOnUse" color-interpolation-filters="sRGB">
<feFlood flood-opacity="0" result="BackgroundImageFix"/>
<feGaussianBlur in="BackgroundImageFix" stdDeviation="2"/>
<feComposite in2="SourceAlpha" operator="in" result="effect1_backgroundBlur_1_2"/>
<feBlend mode="normal" in="SourceGraphic" in2="effect1_backgroundBlur_1_2" result="shape"/>
</filter>
<filter id="filter4_d_1_2" x="26.5847" y="61.5586" width="79.9206" height="110.256" filterUnits="userSpaceOnUse" color-interpolation-filters="sRGB">
<feFlood flood-opacity="0" result="BackgroundImageFix"/>
<feColorMatrix in="SourceAlpha" type="matrix" values="0 0 0 0 0 0 0 0 0 0 0 0 0 0 0 0 0 0 127 0" result="hardAlpha"/>
<feOffset dy="4"/>
<feGaussianBlur stdDeviation="2"/>
<feComposite in2="hardAlpha" operator="out"/>
<feColorMatrix type="matrix" values="0 0 0 0 0 0 0 0 0 0 0 0 0 0 0 0 0 0 0.25 0"/>
<feBlend mode="normal" in2="BackgroundImageFix" result="effect1_dropShadow_1_2"/>
<feBlend mode="normal" in="SourceGraphic" in2="effect1_dropShadow_1_2" result="shape"/>
</filter>
<filter id="filter5_d_1_2" x="74.6321" y="87.8592" width="79.9206" height="110.256" filterUnits="userSpaceOnUse" color-interpolation-filters="sRGB">
<feFlood flood-opacity="0" result="BackgroundImageFix"/>
<feColorMatrix in="SourceAlpha" type="matrix" values="0 0 0 0 0 0 0 0 0 0 0 0 0 0 0 0 0 0 127 0" result="hardAlpha"/>
<feOffset dy="4"/>
<feGaussianBlur stdDeviation="2"/>
<feComposite in2="hardAlpha" operator="out"/>
<feColorMatrix type="matrix" values="0 0 0 0 0 0 0 0 0 0 0 0 0 0 0 0 0 0 0.25 0"/>
<feBlend mode="normal" in2="BackgroundImageFix" result="effect1_dropShadow_1_2"/>
<feBlend mode="normal" in="SourceGraphic" in2="effect1_dropShadow_1_2" result="shape"/>
</filter>
<filter id="filter6_d_1_2" x="52.5773" y="74.8691" width="79.9206" height="110.256" filterUnits="userSpaceOnUse" color-interpolation-filters="sRGB">
<feFlood flood-opacity="0" result="BackgroundImageFix"/>
<feColorMatrix in="SourceAlpha" type="matrix" values="0 0 0 0 0 0 0 0 0 0 0 0 0 0 0 0 0 0 127 0" result="hardAlpha"/>
<feOffset dy="4"/>
<feGaussianBlur stdDeviation="2"/>
<feComposite in2="hardAlpha" operator="out"/>
<feColorMatrix type="matrix" values="0 0 0 0 0 0 0 0 0 0 0 0 0 0 0 0 0 0 0.25 0"/>
<feBlend mode="normal" in2="BackgroundImageFix" result="effect1_dropShadow_1_2"/>
<feBlend mode="normal" in="SourceGraphic" in2="effect1_dropShadow_1_2" result="shape"/>
</filter>
<linearGradient id="paint0_linear_1_2" x1="92.5376" y1="36.5945" x2="92.5376" y2="216.091" gradientUnits="userSpaceOnUse">
<stop offset="0.9999" stop-color="#D9D9D9"/>
<stop offset="1" stop-color="#D9D9D9" stop-opacity="0"/>
</linearGradient>
<linearGradient id="paint1_linear_1_2" x1="-1.31727" y1="68.8981" x2="184.043" y2="186.042" gradientUnits="userSpaceOnUse">
<stop stop-color="#F2F3F7" stop-opacity="0"/>
<stop offset="0.0001" stop-color="#45FFF4" stop-opacity="0.956863"/>
<stop offset="0.0002" stop-color="#F2F3F7" stop-opacity="0.862499"/>
<stop offset="1" stop-color="#0078D4"/>
</linearGradient>
<linearGradient id="paint2_linear_1_2" x1="92.5376" y1="64.7455" x2="92.5376" y2="187.94" gradientUnits="userSpaceOnUse">
<stop stop-color="#FF3030"/>
<stop offset="1" stop-color="#FF3030" stop-opacity="0"/>
</linearGradient>
<clipPath id="clip0_1_2">
<rect width="581" height="225" fill="white"/>
</clipPath>
</defs>
</svg>
